<?xml version="1.0" encoding="UTF-8"?>
<svg id="Livello_2" data-name="Livello 2" xmlns="http://www.w3.org/2000/svg" viewBox="0 0 56.01921 62.35258">
  <defs>
    <style>
      .cls-1 {
        fill: #fff;
      }
    </style>
  </defs>
  <g id="Livello_1-2" data-name="Livello 1">
    <g>
      <path class="cls-1" d="m10.47583,18.70411l6.79513-.05825-1.13243-6.70043c-.16127-.9529.48088-1.85643,1.43381-2.01722.95932-.16014,1.85643.48088,2.01722,1.43381l1.47478,8.72451c.08529.50506-.05513,1.02277-.38392,1.41528-.31312.3741-.76694.59903-1.25116.62408-.02487.00129-.05028.00162-.07568.00196l-8.84825.0755c-.96616.00892-1.75642-.76866-1.76483-1.73436-.00797-.9667.75157-1.72767,1.73534-1.76488Z"/>
      <path class="cls-1" d="m.03336,25.91742c.70216,13.56974,12.31333,24.0384,25.88355,23.33622,1.78545-.09239,3.54554-.38686,5.25243-.8541.63343.69476,1.29045,1.35407,1.99013,1.94028,2.71698,2.2767,6.12458,3.41464,9.64574,3.23244.17262-.00893.3446-.02076.51736-.03655,3.08723-.2722,5.92341-1.54546,8.16792-3.60903.42498.36085,1.05281.95224.94902,1.45046-.11404.54568-.49372.89976-1.21169,1.52852-.92414.81153-2.19021,1.92239-2.62205,3.98946-.59193,2.83809,2.11332,4.89734,2.42421,5.12278.33687.24562.73207.35229,1.11779.33233.50957-.02637,1.0033-.27389,1.32644-.71892.56775-.78234.39477-1.87642-.38756-2.44418-.49441-.37045-1.14272-1.15441-1.05461-1.57749.18335-.87881.66661-1.33799,1.50379-2.07267.87837-.77005,1.97138-1.72918,2.32996-3.44532.50582-2.42342-1.27175-4.12045-2.10967-4.83152,1.7004-2.60062,2.48592-5.6707,2.20843-8.81291-.3266-3.70389-2.07601-7.0584-4.92589-9.44655-.60308-.50516-1.25744-.96659-1.93259-1.40934.16624-1.39375.22061-2.8091.14757-4.22078C48.55144,9.79984,36.94027-.66882,23.37004.03336,9.79982.73554-.66885,12.34671.03336,25.91742Zm35.3743,21.74014c-6.39989-5.362-9.79255-17.25726-10.95427-22.12365-.10169-.425-.03546-.61911-.01843-.63955.02024-.02452.15851-.10208.46913-.11815.08095-.00419.17385-.00411.27978.00215,4.97361.29612,17.23025,1.56288,23.60708,6.90456,2.13283,1.78768,3.4426,4.29953,3.68726,7.07184.24466,2.77231-.60514,5.47413-2.3928,7.60744-1.78717,2.13329-4.29855,3.44255-7.07084,3.6877-2.76532.23794-5.47416-.60563-7.60693-2.39233ZM3.52868,25.73656C2.92625,14.09393,11.90828,4.13112,23.55091,3.52868c11.64263-.60244,21.60498,8.38011,22.20741,20.02273.03782.73096.03707,1.46293.00042,2.19089-6.76631-3.15016-15.22803-4.15125-20.36646-4.45791-1.53457-.09074-2.82538.39066-3.63865,1.36074-.7972.94969-1.04743,2.26516-.70415,3.70247,1.17856,4.9369,3.57792,12.92906,7.73557,19.02363-1.00207.19853-2.02012.33384-3.04901.38708-11.64263.60244-21.60492-8.37913-22.20736-20.02176Z"/>
    </g>
  </g>
</svg>