<?xml version="1.0" encoding="UTF-8"?>
<svg id="Livello_2" data-name="Livello 2" xmlns="http://www.w3.org/2000/svg" viewBox="0 0 162.57765 49.35701">
  <defs>
    <style>
      .cls-1 {
        fill: #1d1d1b;
      }
    </style>
  </defs>
  <g id="Livello_1-2" data-name="Livello 1">
    <g>
      <g>
        <path class="cls-1" d="m29.02197,13.66401c.2519-1.16211.39204-2.31704.39204-3.45095,0-5.62803-4.58486-10.21306-10.21289-10.21306-5.63521,0-10.21323,4.58503-10.21323,10.21306,0,1.1269.14014,2.28184.39204,3.44395-3.49282,2.08599-6.27197,5.25-7.86782,9.02292-.0041.00803-.00581.01692-.00957.02495-.03589.07126-.06392.14441-.08511.21943-.9167,2.23279-1.41743,4.67288-1.41743,7.22473,0,9.05796,6.3,16.67388,14.75605,18.68296.00376.00137.00752.00137.01162.00256.00444.0012.00923.00205.01401.00308.0123.00359.02495.00837.03726.00837,1.40718.33599,2.8769.51099,4.38218.51099,10.58408,0,19.20078-8.61704,19.20078-19.20796,0-7-3.76592-13.13901-9.37993-16.48503Zm-17.58408-3.45095c0-4.27708,3.47915-7.76306,7.76323-7.76306,4.2769,0,7.76289,3.48599,7.76289,7.76306,0,.74187-.0769,1.51194-.20986,2.28184-.14014.7981-.34316,1.61003-.59507,2.42197-1.52612,4.89316-4.84395,9.74412-6.49619,11.97708-.24473.32898-.4269.39905-.47578.39905-.06323,0-.22422-.09109-.40605-.34299-1.6731-2.23997-5.00493-7.11912-6.54507-12.03313-.24507-.81194-.4481-1.62388-.58789-2.42197-.13296-.7699-.21021-1.53997-.21021-2.28184Zm-1.38599,5.91479c1.61021,4.84412,4.6833,9.49204,6.76211,12.28521.63711.86099,1.4769,1.32993,2.3731,1.32993.90986,0,1.77803-.49014,2.44282-1.38599,2.05796-2.78599,5.11704-7.40605,6.72007-12.22915,3.51401,2.29619,6.11816,5.8801,7.13296,10.0801.00034.0012.00034.00239.00068.00359l-15.79614,7.85518-15.55825-11.21709c0-.00051.00034-.00103.00068-.00171,1.33027-2.74395,3.38823-5.06799,5.92197-6.72007Zm-6.85303,9.07214h0l14.00889,10.09993-10.96963,5.45508-.00103-.00103c-2.36626-2.89092-3.78711-6.58711-3.78711-10.60493,0-1.72214.25908-3.38806.74888-4.94905Zm4.82036,17.40618l6.14551-3.05618-.25942,6.49465c-2.20322-.73521-4.19727-1.91047-5.88335-3.43574-.00103-.00085-.00171-.00188-.00273-.00273Zm11.18188,4.30083c-.97959,0-1.93765-.08408-2.86802-.2519l.33325-8.34907,7.03726-3.49949,8.73496,5.60359c-.00034.00034-.00034.00051-.00068.00085-3.07275,3.94792-7.86099,6.49602-13.23677,6.49602Zm14.59473-8.54014c-.00068.00085-.00103.00171-.00171.00273l-7.53491-4.83386,9.62944-4.78875c0,.00068.00034.00137.00034.00205.04204.46194.06289.93088.06289,1.4,0,2.98184-.78374,5.78901-2.15605,8.21782Z"/>
        <path class="cls-1" d="m17.35303,11.03901c.51099.39905,1.15493.62993,1.8481.62993.7,0,1.34395-.23806,1.84775-.62993.70718-.55303,1.16211-1.42102,1.16211-2.38711,0-1.66592-1.34395-3.01003-3.00986-3.01003s-3.01704,1.34412-3.01704,3.01003c0,.9731.45493,1.83408,1.16895,2.38711Z"/>
      </g>
      <g>
        <g>
          <path class="cls-1" d="m45.07276,22.49111c-.33594-.42773-.94727-1.58789-.94727-3.05469,0-2.93262,2.04688-5.16211,5.34619-5.16211h5.00977c.24463,0,.39697.18262.39697.39648v.33594c0,.15332-.09131.33691-.2749.36719l-2.19922.15234c.58008.30566,1.89404,1.375,1.89404,3.91016,0,2.71875-1.95508,5.07129-5.07129,5.07129-1.83252,0-2.93262-.67188-3.32959-1.09961-.24414.0918-1.55811.76367-1.55811,2.19922s1.22217,1.77148,2.41357,1.77148h4.4292c2.62744,0,4.52148,1.19141,4.52148,3.91016,0,2.59668-2.50537,4.97949-6.23193,4.97949-4.15479,0-5.95703-2.44336-5.95703-4.52051,0-1.80273,1.2832-2.81055,1.9248-3.20801-.61133-.12207-2.38281-.94727-2.38281-2.78027,0-2.0459,1.68018-3.08496,2.01611-3.26855Zm4.36816,12.52539c2.74951,0,4.85742-1.61914,4.85742-3.69629,0-1.40527-.85547-2.68848-3.11621-2.68848h-3.84912c-.30518.03027-2.47412.88574-2.47412,2.96289,0,1.68066,1.61914,3.42188,4.58203,3.42188Zm3.57422-15.61035c0-2.56641-1.74121-3.91016-3.75732-3.91016-2.35205,0-3.87988,1.71094-3.87988,3.91016,0,2.13867,1.31396,3.91016,3.87988,3.91016,2.29102,0,3.75732-1.74121,3.75732-3.91016Z"/>
          <path class="cls-1" d="m57.83839,14.97646c0-.21387.18311-.39648.39697-.39648h.3667c.18311,0,.33594.12207.3667.33594l.12207,1.25195c.30518-.42773,1.52734-1.89355,3.81836-1.89355.97754,0,1.64941.27441,1.89404.36621.2749.0918.42773.30566.33594.5498l-.24414.61133c-.0918.21387-.2749.24414-.48877.15234-.15283-.06055-.76367-.36621-1.58887-.36621-2.38232,0-3.54346,1.92383-3.63477,2.10742v8.70605c0,.24512-.12256.39746-.39746.39746h-.61084c-.21387,0-.33594-.18359-.33594-.39746v-11.4248Z"/>
          <path class="cls-1" d="m72.37696,14.27431c3.20752,0,5.5293,2.35156,5.5293,5.58984,0,.48926,0,1.19141-.45801,1.19141h-9.74512c.12207,2.62695,2.01611,4.82715,4.76562,4.82715,1.61914,0,2.87158-.6416,3.60449-1.13086.2749-.18359.39746-.21387.5498,0l.30566.42773c.0918.12207.06104.30566-.12207.48926-.61084.61035-2.53564,1.43555-4.42969,1.43555-3.72656,0-6.01807-2.87207-6.01807-6.44629,0-3.48242,2.2915-6.38379,6.01807-6.38379Zm4.18506,5.68164c0-2.38281-1.43555-4.45996-4.18506-4.45996-2.68799,0-4.49023,1.95508-4.64307,4.45996h8.82812Z"/>
          <path class="cls-1" d="m86.49903,14.27431c3.20752,0,5.5293,2.35156,5.5293,5.58984,0,.48926,0,1.19141-.45801,1.19141h-9.74512c.12207,2.62695,2.01611,4.82715,4.76562,4.82715,1.61914,0,2.87158-.6416,3.60449-1.13086.2749-.18359.39746-.21387.5498,0l.30566.42773c.0918.12207.06104.30566-.12207.48926-.61084.61035-2.53564,1.43555-4.42969,1.43555-3.72656,0-6.01807-2.87207-6.01807-6.44629,0-3.48242,2.2915-6.38379,6.01807-6.38379Zm4.18506,5.68164c0-2.38281-1.43555-4.45996-4.18506-4.45996-2.68799,0-4.49023,1.95508-4.64307,4.45996h8.82812Z"/>
          <path class="cls-1" d="m95.3213,14.97646c0-.21387.18311-.39648.42773-.39648h.30518c.21387,0,.33594.12207.3667.30469l.12207,1.31348c.39746-.42773,2.07715-1.92383,4.52148-1.92383,3.4209,0,4.91797,2.16895,4.91797,5.58984v6.53711c0,.21387-.18311.39746-.39697.39746h-.5498c-.21387,0-.39746-.18359-.39746-.39746v-6.53711c0-2.81055-1.31348-4.27637-3.63525-4.27637-2.50488,0-4.24609,1.95508-4.36816,2.10742v8.70605c0,.24512-.12207.39746-.39697.39746h-.58057c-.21387,0-.33594-.18359-.33594-.39746v-11.4248Z"/>
          <path class="cls-1" d="m110.05421,14.97646c0-.21387.18311-.39648.39697-.39648h.3667c.18311,0,.30518.12207.33594.30469l.15283,1.31348c.33594-.45801,1.74121-1.92383,4.21533-1.92383,1.86377,0,3.23828.79395,4.00195,2.22949.3667-.48828,2.07715-2.22949,4.58252-2.22949,3.32959,0,4.76514,2.16895,4.76514,5.58984v6.53711c0,.21387-.18311.39746-.39697.39746h-.61084c-.18359,0-.33643-.15234-.33643-.39746v-6.53711c0-2.81055-1.22168-4.27637-3.5127-4.27637s-3.63525,1.58789-4.03223,2.07715c.18311.6416.2749,1.375.2749,2.19922v6.53711c0,.21387-.18359.39746-.39746.39746h-.58008c-.21387,0-.3667-.15234-.3667-.39746v-6.53711c0-2.81055-1.25244-4.27637-3.54346-4.27637-2.47461,0-3.81885,1.86328-3.97119,2.10742v8.70605c0,.24512-.12256.39746-.39746.39746h-.61084c-.21387,0-.33594-.18359-.33594-.39746v-11.4248Z"/>
          <path class="cls-1" d="m132.56837,7.58388c0-.58008.45801-1.06934,1.03857-1.06934s1.03857.48926,1.03857,1.06934c0,.5498-.45801,1.00781-1.03857,1.00781s-1.03857-.45801-1.03857-1.00781Zm.3667,7.39258c0-.21387.18311-.39648.39697-.39648h.5498c.21387,0,.39746.18262.39746.39648v11.4248c0,.24512-.12256.39746-.39746.39746h-.61084c-.21387,0-.33594-.18359-.33594-.39746v-11.4248Z"/>
          <path class="cls-1" d="m143.96485,14.27431c2.38281,0,3.97119,1.22168,4.521,1.92383.15283.18359.12256.39746-.06104.5498l-.30566.30566c-.21338.21387-.45801.12207-.64111-.06055-.30566-.33594-1.58887-1.40527-3.51318-1.40527-2.77979,0-5.04053,2.16895-5.04053,5.07031,0,2.96387,2.29102,5.16309,5.00977,5.16309,2.2915,0,3.48291-1.43555,3.81885-1.80273.21387-.24414.39697-.24414.58008-.06055l.33643.30566c.15234.15234.21387.30469.09131.48828-.45801.7334-2.26025,2.35254-4.7959,2.35254-3.45215,0-6.41504-2.71875-6.41504-6.41504,0-3.66602,2.96289-6.41504,6.41504-6.41504Z"/>
          <path class="cls-1" d="m157.04835,14.27431c3.20752,0,5.5293,2.35156,5.5293,5.58984,0,.48926,0,1.19141-.45801,1.19141h-9.74512c.12207,2.62695,2.01611,4.82715,4.76562,4.82715,1.61914,0,2.87158-.6416,3.60449-1.13086.2749-.18359.39746-.21387.5498,0l.30566.42773c.0918.12207.06104.30566-.12207.48926-.61084.61035-2.53564,1.43555-4.42969,1.43555-3.72656,0-6.01807-2.87207-6.01807-6.44629,0-3.48242,2.2915-6.38379,6.01807-6.38379Zm4.18506,5.68164c0-2.38281-1.43555-4.45996-4.18506-4.45996-2.68799,0-4.49023,1.95508-4.64307,4.45996h8.82812Z"/>
        </g>
        <g>
          <path class="cls-1" d="m63.16944,33.19716c1.26074,0,2.46533.49023,3.41797,1.30273.11182.1123.12598.28027.01367.39258l-.86816.91016c-.1123.1123-.23828.1123-.36426,0-.60254-.53223-1.34473-.8125-2.11523-.8125-1.75098,0-3.1377,1.49902-3.1377,3.25,0,1.73633,1.38672,3.20703,3.15186,3.20703.78418,0,1.38672-.2373,1.66699-.34961v-1.19043h-1.12061c-.1543,0-.26611-.1123-.26611-.25293v-1.10645c0-.1543.11182-.26562.26611-.26562h2.68945c.14014,0,.25195.12598.25195.26562v3.58594c0,.1123-.05615.18262-.11182.22461,0,0-1.44287.91016-3.47412.91016-2.7876,0-5.02881-2.21289-5.02881-5.01465s2.24121-5.05664,5.02881-5.05664Z"/>
          <path class="cls-1" d="m68.81886,33.60341c0-.14062.11182-.2666.26611-.2666h5.70068c.1543,0,.26611.12598.26611.2666v1.14844c0,.14062-.11182.2666-.26611.2666h-4.146v2.29688h3.45996c.14014,0,.26611.12598.26611.2666v1.16211c0,.1543-.12598.2666-.26611.2666h-3.45996v2.45117h4.146c.1543,0,.26611.12598.26611.26562v1.14844c0,.14062-.11182.2666-.26611.2666h-5.70068c-.1543,0-.26611-.12598-.26611-.2666v-9.27246Z"/>
          <path class="cls-1" d="m81.14259,33.19716c2.80176,0,5.04297,2.25488,5.04297,5.05664s-2.24121,5.02832-5.04297,5.02832-5.02881-2.22656-5.02881-5.02832,2.22705-5.05664,5.02881-5.05664Zm0,8.26465c1.76514,0,3.22168-1.44336,3.22168-3.20801s-1.45654-3.23535-3.22168-3.23535-3.20752,1.4707-3.20752,3.23535,1.44238,3.20801,3.20752,3.20801Z"/>
          <path class="cls-1" d="m87.30079,41.76943l.50439-.86816c.1123-.19629.3501-.19629.47607-.09766.07031.04199,1.20508.86816,2.11523.86816.72852,0,1.2749-.47656,1.2749-1.0791,0-.71387-.60254-1.2041-1.77881-1.68066-1.31689-.53223-2.63379-1.37305-2.63379-3.02539,0-1.24707.9248-2.68945,3.15186-2.68945,1.42871,0,2.52148.72852,2.80127.93848.14014.08398.18213.32227.08447.46191l-.53271.79883c-.11182.16797-.32178.28027-.49023.16797-.11182-.07031-1.17627-.77051-1.94678-.77051-.79834,0-1.23291.53223-1.23291.98047,0,.6582.51855,1.10645,1.65332,1.56934,1.3584.5459,2.92725,1.3584,2.92725,3.16504,0,1.44336-1.24658,2.77344-3.22168,2.77344-1.76514,0-2.80127-.82617-3.08154-1.0918-.12598-.12598-.19629-.19629-.07031-.4209Z"/>
          <path class="cls-1" d="m99.66993,33.19716c2.80176,0,5.04297,2.25488,5.04297,5.05664s-2.24121,5.02832-5.04297,5.02832-5.02881-2.22656-5.02881-5.02832,2.22705-5.05664,5.02881-5.05664Zm0,8.26465c1.76514,0,3.22168-1.44336,3.22168-3.20801s-1.45654-3.23535-3.22168-3.23535-3.20752,1.4707-3.20752,3.23535,1.44238,3.20801,3.20752,3.20801Z"/>
          <path class="cls-1" d="m106.46192,33.60341c0-.14062.11182-.2666.26611-.2666h1.28857c.14014,0,.26611.12598.26611.2666v7.8584h3.57178c.1543,0,.26611.12598.26611.26562v1.14844c0,.14062-.11182.2666-.26611.2666h-5.12646c-.1543,0-.26611-.12598-.26611-.2666v-9.27246Z"/>
          <path class="cls-1" d="m113.03028,33.60341c0-.14062.12598-.2666.26611-.2666h1.33057c.1543,0,.26611.12598.26611.2666v5.72852c0,1.19141.8125,2.12988,2.03125,2.12988s2.04492-.93848,2.04492-2.11523v-5.74316c0-.14062.1123-.2666.26611-.2666h1.33105c.13965,0,.26611.12598.26611.2666v5.82715c0,2.12891-1.69531,3.85156-3.9082,3.85156-2.19922,0-3.89404-1.72266-3.89404-3.85156v-5.82715Z"/>
          <path class="cls-1" d="m124.44483,35.01845h-2.14307c-.1543,0-.26611-.12598-.26611-.2666v-1.14844c0-.14062.11182-.2666.26611-.2666h6.12109c.1543,0,.2666.12598.2666.2666v1.14844c0,.14062-.1123.2666-.2666.2666h-2.14307v7.85742c0,.14062-.12598.2666-.26611.2666h-1.30273c-.14014,0-.26611-.12598-.26611-.2666v-7.85742Z"/>
          <path class="cls-1" d="m129.95753,33.60341c0-.14062.12598-.2666.26611-.2666h1.30273c.13965,0,.26611.12598.26611.2666v9.27246c0,.14062-.12646.2666-.26611.2666h-1.30273c-.14014,0-.26611-.12598-.26611-.2666v-9.27246Z"/>
          <path class="cls-1" d="m138.55274,33.19716c2.80176,0,5.04297,2.25488,5.04297,5.05664s-2.24121,5.02832-5.04297,5.02832-5.02881-2.22656-5.02881-5.02832,2.22705-5.05664,5.02881-5.05664Zm0,8.26465c1.76514,0,3.22168-1.44336,3.22168-3.20801s-1.45654-3.23535-3.22168-3.23535-3.20752,1.4707-3.20752,3.23535,1.44238,3.20801,3.20752,3.20801Z"/>
          <path class="cls-1" d="m145.34474,33.44912c0-.13965.12598-.25195.26611-.25195h.3501l5.82715,6.19141h.01367v-5.78516c0-.14062.1123-.2666.2666-.2666h1.28857c.14014,0,.26611.12598.26611.2666v9.42676c0,.14062-.12598.25195-.26611.25195h-.33643l-5.85498-6.42871h-.01416v6.02246c0,.14062-.11182.2666-.26611.2666h-1.27441c-.14014,0-.26611-.12598-.26611-.2666v-9.42676Z"/>
          <path class="cls-1" d="m155.52589,41.76943l.50439-.86816c.1123-.19629.3501-.19629.47656-.09766.06982.04199,1.20459.86816,2.11475.86816.72852,0,1.2749-.47656,1.2749-1.0791,0-.71387-.60254-1.2041-1.77881-1.68066-1.31689-.53223-2.63379-1.37305-2.63379-3.02539,0-1.24707.9248-2.68945,3.15186-2.68945,1.42871,0,2.52148.72852,2.80176.93848.13965.08398.18164.32227.08398.46191l-.53223.79883c-.1123.16797-.32227.28027-.49072.16797-.11182-.07031-1.17627-.77051-1.94678-.77051-.79834,0-1.23291.53223-1.23291.98047,0,.6582.51855,1.10645,1.65283,1.56934,1.35889.5459,2.92773,1.3584,2.92773,3.16504,0,1.44336-1.24658,2.77344-3.22168,2.77344-1.76514,0-2.80127-.82617-3.08154-1.0918-.12598-.12598-.19629-.19629-.07031-.4209Z"/>
        </g>
      </g>
    </g>
  </g>
</svg>