<?xml version="1.0" encoding="UTF-8"?>
<svg id="Livello_2" data-name="Livello 2" xmlns="http://www.w3.org/2000/svg" viewBox="0 0 230.87776 70.51001">
  <defs>
    <style>
      .cls-1 {
        fill: #0098a0;
      }

      .cls-2 {
        fill: #24322e;
      }
    </style>
  </defs>
  <g id="Livello_1-2" data-name="Livello 1">
    <g>
      <g>
        <path class="cls-1" d="m41.45996,19.52002c.35986-1.66016.56006-3.31006.56006-4.92993,0-8.04004-6.5498-14.59009-14.58984-14.59009-8.05029,0-14.59033,6.55005-14.59033,14.59009,0,1.60986.2002,3.25977.56006,4.91992-4.98975,2.97998-8.95996,7.5-11.23975,12.88989-.00586.01147-.0083.02417-.01367.03564-.05127.10181-.09131.2063-.12158.31348-1.30957,3.1897-2.0249,6.67554-2.0249,10.32104,0,12.93994,9,23.81982,21.08008,26.68994.00537.00195.01074.00195.0166.00366.00635.00171.01318.00293.02002.00439.01758.00513.03564.01196.05322.01196,2.01025.47998,4.10986.72998,6.26025.72998,15.12012,0,27.42969-12.31006,27.42969-27.43994,0-10-5.37988-18.77002-13.3999-23.55005Zm-25.12012-4.92993c0-6.11011,4.97021-11.09009,11.09033-11.09009,6.10986,0,11.08984,4.97998,11.08984,11.09009,0,1.05981-.10986,2.15991-.2998,3.25977-.2002,1.14014-.49023,2.30005-.8501,3.45996-2.18018,6.99023-6.91992,13.92017-9.28027,17.11011-.34961.46997-.60986.57007-.67969.57007-.09033,0-.32031-.13013-.58008-.48999-2.39014-3.19995-7.1499-10.17017-9.3501-17.19019-.3501-1.15991-.64014-2.31982-.83984-3.45996-.18994-1.09985-.30029-2.19995-.30029-3.25977Zm-1.97998,8.44971c2.30029,6.92017,6.69043,13.56006,9.66016,17.55029.91016,1.22998,2.10986,1.8999,3.39014,1.8999,1.2998,0,2.54004-.7002,3.48975-1.97998,2.93994-3.97998,7.31006-10.58008,9.6001-17.47021,5.02002,3.28027,8.74023,8.40015,10.18994,14.40015.00049.00171.00049.00342.00098.00513l-22.56592,11.22168L5.89893,32.64233c0-.00073.00049-.00146.00098-.00244,1.90039-3.91992,4.84033-7.23999,8.45996-9.6001Zm-9.79004,12.96021h0l20.0127,14.42847-15.6709,7.79297-.00146-.00146c-3.38037-4.12988-5.41016-9.41016-5.41016-15.1499,0-2.46021.37012-4.84009,1.06982-7.07007Zm6.88623,24.86597l8.7793-4.36597-.37061,9.27808c-3.14746-1.05029-5.99609-2.72925-8.40479-4.9082-.00146-.00122-.00244-.00269-.00391-.00391Zm15.97412,6.14404c-1.39941,0-2.76807-.12012-4.09717-.35986l.47607-11.92725,10.05322-4.99927,12.47852,8.00513c-.00049.00049-.00049.00073-.00098.00122-4.38965,5.63989-11.22998,9.28003-18.90967,9.28003Zm20.84961-12.2002c-.00098.00122-.00146.00244-.00244.00391l-10.76416-6.90552,13.75635-6.84106c0,.00098.00049.00195.00049.00293.06006.65991.08984,1.32983.08984,2,0,4.25977-1.11963,8.27002-3.08008,11.73975Z"/>
        <path class="cls-1" d="m24.79004,15.77002c.72998.57007,1.6499.8999,2.64014.8999,1,0,1.91992-.34009,2.63965-.8999,1.01025-.79004,1.66016-2.03003,1.66016-3.41016,0-2.37988-1.91992-4.30005-4.2998-4.30005s-4.31006,1.92017-4.31006,4.30005c0,1.39014.6499,2.62012,1.66992,3.41016Z"/>
      </g>
      <g>
        <g>
          <path class="cls-2" d="m64.38753,32.1326c-.47998-.61035-1.35254-2.26855-1.35254-4.3623,0-4.1875,2.92285-7.37207,7.63428-7.37207h7.15479c.34863,0,.56689.26172.56689.56641v.48047c0,.21777-.13086.47949-.39258.52344l-3.14111.21777c.8291.43652,2.70508,1.96289,2.70508,5.58398,0,3.88281-2.79199,7.24219-7.24219,7.24219-2.61719,0-4.18799-.95996-4.75488-1.57129-.34912.13086-2.2251,1.09082-2.2251,3.1416,0,2.0498,1.74512,2.53027,3.44678,2.53027h6.3252c3.75195,0,6.45654,1.70117,6.45654,5.58398,0,3.70801-3.57715,7.11035-8.89941,7.11035-5.93311,0-8.50684-3.48926-8.50684-6.45605,0-2.57422,1.83252-4.01367,2.74854-4.58105-.87256-.17383-3.40283-1.35254-3.40283-3.96973,0-2.92285,2.39941-4.40625,2.87939-4.66797Zm6.23828,17.88672c3.92627,0,6.93652-2.3125,6.93652-5.2793,0-2.00586-1.22168-3.83887-4.4502-3.83887h-5.49658c-.43604.04395-3.53369,1.26562-3.53369,4.23145,0,2.39941,2.3125,4.88672,6.54395,4.88672Zm5.104-22.29297c0-3.66406-2.48682-5.58398-5.36572-5.58398-3.35938,0-5.54053,2.44336-5.54053,5.58398,0,3.05371,1.87598,5.58398,5.54053,5.58398,3.27197,0,5.36572-2.48633,5.36572-5.58398Z"/>
          <path class="cls-2" d="m82.43685,21.40115c0-.30566.26172-.56738.56738-.56738h.52344c.26172,0,.47998.1748.52344.48047l.17432,1.78809c.43652-.61035,2.18115-2.7041,5.45312-2.7041,1.396,0,2.35596.39258,2.70508.52344.39258.13086.61035.43555.47949.78516l-.34863.87207c-.13086.30566-.39307.34961-.69824.21777-.21826-.08691-1.09082-.52344-2.26855-.52344-3.40283,0-5.06055,2.74902-5.19141,3.01074v12.43262c0,.34961-.17432.56738-.56689.56738h-.87256c-.30566,0-.47998-.26172-.47998-.56738v-16.31543Z"/>
          <path class="cls-2" d="m103.02474,20.39822c4.58057,0,7.896,3.3584,7.896,7.98242,0,.69824,0,1.70215-.6543,1.70215h-13.9165c.1748,3.75098,2.87939,6.89258,6.80566,6.89258,2.31201,0,4.10059-.91602,5.14746-1.61426.39307-.26172.56738-.30566.78564,0l.43604.61035c.13086.1748.0874.43652-.17432.69824-.87256.87305-3.62109,2.05078-6.32568,2.05078-5.32227,0-8.59424-4.10059-8.59424-9.20508,0-4.97363,3.27197-9.11719,8.59424-9.11719Zm5.97656,8.11426c0-3.40332-2.05029-6.37012-5.97656-6.37012-3.83887,0-6.41309,2.79199-6.63086,6.37012h12.60742Z"/>
          <path class="cls-2" d="m123.02474,20.39822c4.58057,0,7.896,3.3584,7.896,7.98242,0,.69824,0,1.70215-.6543,1.70215h-13.9165c.1748,3.75098,2.87939,6.89258,6.80566,6.89258,2.31201,0,4.10059-.91602,5.14746-1.61426.39307-.26172.56738-.30566.78564,0l.43604.61035c.13086.1748.0874.43652-.17432.69824-.87256.87305-3.62109,2.05078-6.32568,2.05078-5.32227,0-8.59424-4.10059-8.59424-9.20508,0-4.97363,3.27197-9.11719,8.59424-9.11719Zm5.97656,8.11426c0-3.40332-2.05029-6.37012-5.97656-6.37012-3.83887,0-6.41309,2.79199-6.63086,6.37012h12.60742Z"/>
          <path class="cls-2" d="m135.45589,21.40115c0-.30566.26172-.56738.61084-.56738h.43604c.30566,0,.47998.1748.52344.43652l.1748,1.87598c.56689-.61133,2.96631-2.74805,6.45654-2.74805,4.88574,0,7.02344,3.09668,7.02344,7.98242v9.33594c0,.30566-.26172.56738-.56689.56738h-.78564c-.30518,0-.56689-.26172-.56689-.56738v-9.33594c0-4.0127-1.87598-6.10742-5.19141-6.10742-3.57715,0-6.06396,2.79199-6.23828,3.01074v12.43262c0,.34961-.17432.56738-.56738.56738h-.82861c-.30518,0-.47998-.26172-.47998-.56738v-16.31543Z"/>
          <path class="cls-2" d="m156.32405,21.40115c0-.30566.26172-.56738.56738-.56738h.52344c.26172,0,.43604.1748.47949.43652l.21826,1.87598c.47998-.6543,2.48682-2.74805,6.02051-2.74805,2.66113,0,4.62402,1.13379,5.71484,3.18457.52344-.69824,2.96631-3.18457,6.54346-3.18457,4.75537,0,6.80566,3.09668,6.80566,7.98242v9.33594c0,.30566-.26172.56738-.56738.56738h-.87207c-.26221,0-.47998-.21777-.47998-.56738v-9.33594c0-4.0127-1.74512-6.10742-5.01709-6.10742s-5.19141,2.26855-5.7583,2.9668c.26172.91602.39258,1.96289.39258,3.14062v9.33594c0,.30566-.26172.56738-.56738.56738h-.82861c-.30518,0-.52344-.21777-.52344-.56738v-9.33594c0-4.0127-1.78857-6.10742-5.06055-6.10742-3.53369,0-5.45312,2.66113-5.67139,3.01074v12.43262c0,.34961-.17432.56738-.56689.56738h-.87256c-.30518,0-.47998-.26172-.47998-.56738v-16.31543Z"/>
          <path class="cls-2" d="m188.30892,10.84353c0-.82812.6543-1.52637,1.4834-1.52637.82861,0,1.48291.69824,1.48291,1.52637,0,.78516-.6543,1.44043-1.48291,1.44043-.8291,0-1.4834-.65527-1.4834-1.44043Zm.52344,10.55762c0-.30566.26172-.56738.56738-.56738h.78516c.30518,0,.56689.26172.56689.56738v16.31543c0,.34961-.17432.56738-.56689.56738h-.87256c-.30566,0-.47998-.26172-.47998-.56738v-16.31543Z"/>
          <path class="cls-2" d="m204.40755,20.39822c3.40283,0,5.67139,1.74414,6.45654,2.74805.21826.26172.17432.56738-.0874.78516l-.43604.43652c-.30566.30469-.6543.17383-.91602-.08789-.43652-.47949-2.26855-2.00684-5.01709-2.00684-3.96973,0-7.19824,3.09766-7.19824,7.24219,0,4.23145,3.27197,7.37207,7.15479,7.37207,3.27148,0,4.97314-2.0498,5.45312-2.57324.30518-.34961.56689-.34961.82861-.08691l.47998.43555c.21826.21875.30518.43652.13086.69824-.6543,1.04688-3.22803,3.35938-6.84912,3.35938-4.92969,0-9.16113-3.88281-9.16113-9.16113,0-5.23535,4.23145-9.16113,9.16113-9.16113Z"/>
          <path class="cls-2" d="m222.91536,20.39822c4.58057,0,7.896,3.3584,7.896,7.98242,0,.69824,0,1.70215-.6543,1.70215h-13.9165c.1748,3.75098,2.87939,6.89258,6.80566,6.89258,2.31201,0,4.10059-.91602,5.14746-1.61426.39307-.26172.56738-.30566.78564,0l.43604.61035c.13086.1748.0874.43652-.17432.69824-.87256.87305-3.62109,2.05078-6.32568,2.05078-5.32227,0-8.59424-4.10059-8.59424-9.20508,0-4.97363,3.27197-9.11719,8.59424-9.11719Zm5.97656,8.11426c0-3.40332-2.05029-6.37012-5.97656-6.37012-3.83887,0-6.41309,2.79199-6.63086,6.37012h12.60742Z"/>
        </g>
        <g>
          <path class="cls-1" d="m90.23909,47.4285c1.80078,0,3.521.7002,4.88135,1.86035.15967.16016.18018.40039.02002.56055l-1.24023,1.2998c-.16016.16016-.33984.16016-.52051,0-.85986-.75977-1.91992-1.16016-3.02051-1.16016-2.50049,0-4.48047,2.14062-4.48047,4.64062,0,2.48145,1.97998,4.58105,4.50098,4.58105,1.12012,0,1.97998-.33984,2.37988-.5v-1.7002h-1.6001c-.22021,0-.38037-.16016-.38037-.36035v-1.58008c0-.21973.16016-.37988.38037-.37988h3.84082c.2002,0,.35986.17969.35986.37988v5.12109c0,.16016-.08008.25977-.15967.32031,0,0-2.06055,1.2998-4.96143,1.2998-3.98047,0-7.18164-3.16016-7.18164-7.16113s3.20117-7.22168,7.18164-7.22168Z"/>
          <path class="cls-1" d="m98.27571,48.00857c0-.2002.16016-.37988.38037-.37988h8.1416c.21973,0,.37988.17969.37988.37988v1.64062c0,.2002-.16016.37988-.37988.37988h-5.92139v3.28027h4.94092c.2002,0,.38037.18066.38037.38086v1.66016c0,.21973-.18018.37988-.38037.37988h-4.94092v3.50098h5.92139c.21973,0,.37988.17969.37988.37988v1.64062c0,.2002-.16016.37988-.37988.37988h-8.1416c-.22021,0-.38037-.17969-.38037-.37988v-13.24316Z"/>
          <path class="cls-1" d="m115.84114,47.4285c4.00098,0,7.20166,3.2207,7.20166,7.22168s-3.20068,7.18164-7.20166,7.18164-7.18164-3.18066-7.18164-7.18164,3.18066-7.22168,7.18164-7.22168Zm0,11.80273c2.52051,0,4.60107-2.06055,4.60107-4.58105s-2.08057-4.62109-4.60107-4.62109-4.58105,2.10059-4.58105,4.62109,2.06055,4.58105,4.58105,4.58105Z"/>
          <path class="cls-1" d="m124.6053,59.67166l.72021-1.24121c.15967-.2793.5-.2793.68018-.13965.09961.06055,1.72021,1.24023,3.02051,1.24023,1.04004,0,1.82031-.67969,1.82031-1.54004,0-1.02051-.86035-1.7207-2.54053-2.40039-1.88037-.76074-3.76074-1.96094-3.76074-4.32129,0-1.78027,1.32031-3.84082,4.50098-3.84082,2.04053,0,3.60107,1.04004,4.00098,1.34082.19971.11914.26025.45996.11963.66016l-.75977,1.13965c-.16016.24023-.45996.40039-.7002.24023-.16016-.09961-1.68066-1.10059-2.78076-1.10059-1.14014,0-1.76025.76074-1.76025,1.40039,0,.94043.74023,1.58008,2.36035,2.24023,1.94043.78027,4.18066,1.94043,4.18066,4.52148,0,2.06055-1.78027,3.96094-4.60059,3.96094-2.52051,0-4.00098-1.18066-4.40088-1.56055-.18018-.17969-.28027-.28027-.1001-.59961Z"/>
          <path class="cls-1" d="m142.23665,47.4285c4.00098,0,7.20166,3.2207,7.20166,7.22168s-3.20068,7.18164-7.20166,7.18164-7.18164-3.18066-7.18164-7.18164,3.18066-7.22168,7.18164-7.22168Zm0,11.80273c2.52051,0,4.60107-2.06055,4.60107-4.58105s-2.08057-4.62109-4.60107-4.62109-4.58105,2.10059-4.58105,4.62109,2.06055,4.58105,4.58105,4.58105Z"/>
          <path class="cls-1" d="m151.90511,48.00857c0-.2002.16016-.37988.37988-.37988h1.84082c.2002,0,.37988.17969.37988.37988v11.22266h5.10107c.22021,0,.38037.17969.38037.37988v1.64062c0,.2002-.16016.37988-.38037.37988h-7.32178c-.21973,0-.37988-.17969-.37988-.37988v-13.24316Z"/>
          <path class="cls-1" d="m161.24886,48.00857c0-.2002.17969-.37988.37988-.37988h1.90039c.22021,0,.38037.17969.38037.37988v8.18164c0,1.7002,1.16016,3.04102,2.90088,3.04102,1.74023,0,2.91992-1.34082,2.91992-3.02051v-8.20215c0-.2002.16016-.37988.38037-.37988h1.90039c.2002,0,.38037.17969.38037.37988v8.32227c0,3.04004-2.4209,5.50098-5.58105,5.50098-3.14111,0-5.56152-2.46094-5.56152-5.50098v-8.32227Z"/>
          <path class="cls-1" d="m177.51937,50.02908h-3.06055c-.22021,0-.38037-.17969-.38037-.37988v-1.64062c0-.2002.16016-.37988.38037-.37988h8.7417c.22021,0,.37988.17969.37988.37988v1.64062c0,.2002-.15967.37988-.37988.37988h-3.06104v11.22266c0,.2002-.17969.37988-.37988.37988h-1.86035c-.2002,0-.37988-.17969-.37988-.37988v-11.22266Z"/>
          <path class="cls-1" d="m185.35628,48.00857c0-.2002.18066-.37988.38037-.37988h1.86035c.2002,0,.38037.17969.38037.37988v13.24316c0,.2002-.18018.37988-.38037.37988h-1.86035c-.19971,0-.38037-.17969-.38037-.37988v-13.24316Z"/>
          <path class="cls-1" d="m197.59749,47.4285c4.00098,0,7.20166,3.2207,7.20166,7.22168s-3.20068,7.18164-7.20166,7.18164c-4.00049,0-7.18164-3.18066-7.18164-7.18164s3.18115-7.22168,7.18164-7.22168Zm0,11.80273c2.52051,0,4.60156-2.06055,4.60156-4.58105s-2.08105-4.62109-4.60156-4.62109-4.58105,2.10059-4.58105,4.62109,2.06055,4.58105,4.58105,4.58105Z"/>
          <path class="cls-1" d="m207.26644,47.78885c0-.2002.17969-.36035.37988-.36035h.5l8.32227,8.8418h.01953v-8.26172c0-.2002.16016-.37988.37988-.37988h1.84082c.2002,0,.37988.17969.37988.37988v13.46289c0,.2002-.17969.36035-.37988.36035h-.48047l-8.36133-9.18164h-.02051v8.60156c0,.2002-.15967.37988-.37988.37988h-1.82031c-.2002,0-.37988-.17969-.37988-.37988v-13.46289Z"/>
          <path class="cls-1" d="m221.7762,59.67166l.71973-1.24121c.16016-.2793.5-.2793.68018-.13965.1001.06055,1.72021,1.24023,3.021,1.24023,1.04004,0,1.82031-.67969,1.82031-1.54004,0-1.02051-.86035-1.7207-2.54102-2.40039-1.87988-.76074-3.76074-1.96094-3.76074-4.32129,0-1.78027,1.32031-3.84082,4.50098-3.84082,2.04102,0,3.60107,1.04004,4.00098,1.34082.2002.11914.26025.45996.12012.66016l-.76025,1.13965c-.15967.24023-.45996.40039-.69971.24023-.16016-.09961-1.68066-1.10059-2.78125-1.10059-1.13965,0-1.75977.76074-1.75977,1.40039,0,.94043.74023,1.58008,2.36035,2.24023,1.94043.78027,4.18066,1.94043,4.18066,4.52148,0,2.06055-1.78027,3.96094-4.60059,3.96094-2.52051,0-4.00098-1.18066-4.40137-1.56055-.17969-.17969-.28027-.28027-.09961-.59961Z"/>
        </g>
      </g>
    </g>
  </g>
</svg>