<svg id="canvas" height="100%" xmlns="http://www.w3.org/2000/svg" version="1.1" xmlns:xlink="http://www.w3.org/1999/xlink" xmlns:svgjs="http://svgjs.dev/svgjs" viewBox="0 0 600 600"><rect width="600" height="600" fill="transparent"></rect><mask id="mask" mask-type="alpha" maskUnits="userSpaceOnUse"><rect transform="translate(0, 0)" width="600" height="600" fill="white"></rect></mask><svg><path transform="translate(0, 0 translate(30,30) rotate(180) translate(-30,-30)" d="M0 60C33.1371 60 60 33.1371 60 5.24537e-06L5.24537e-06 0L0 60Z" fill="#263238"></path></svg><svg><path transform="translate(0, 3600 translate(30,30) rotate(270) translate(-30,-30)" d="M0 60C33.1371 60 60 33.1371 60 5.24537e-06L5.24537e-06 0L0 60Z" fill="#BFE5E5"></path></svg><svg><path transform="
    translate(0, 120)
    " d="M0 0h60v60H0z" fill="
    #BFE5E5"></path></svg><svg><path transform="translate(0, 10800 translate(30,30) rotate(270) translate(-30,-30)" d="M0 60C33.1371 60 60 33.1371 60 5.24537e-06L5.24537e-06 0L0 60Z" fill="#46C2C2"></path></svg><svg><path transform="translate(0,240) translate(30,30) rotate(270) translate(-30,-30)" fill="#D8F0F0" d="M60 0v60H0V0z"></path><path transform="translate(0,240) translate(30,30) rotate(270) translate(-30,-30)" fill="#263238" d="M60 0v60H0C0 26.863 26.863 0 60 0z"></path></svg><svg><path transform="translate(0, 300) translate(30,30) rotate(180) translate(-30,-30)" fill="#2B6F73" d="M0 0h60v60H0z"></path><circle cx="30" cy="30" r="30" transform="translate(0, 300) translate(30,30) rotate(180) translate(-30,-30)" fill="#EAF7F7"></circle></svg><svg><path transform="translate(0,360) translate(30,30) rotate(90) translate(-30,-30)" fill="#1AA6A6" d="M60 0v60H0V0z"></path><path transform="translate(0,360) translate(30,30) rotate(90) translate(-30,-30)" fill="#EAF7F7" d="M60 0v60H0C0 26.863 26.863 0 60 0z"></path></svg><svg><path transform="translate(0, 25200 translate(30,30) rotate(270) translate(-30,-30)" d="M0 60C33.1371 60 60 33.1371 60 5.24537e-06L5.24537e-06 0L0 60Z" fill="#46C2C2"></path></svg><svg><circle cx="30" cy="30" r="30" transform="
    translate(0, 480)
    " fill="
    #148E8E
    "></circle></svg><svg><circle cx="30" cy="30" r="30" transform="
    translate(0, 540)
    " fill="
    #BFE5E5
    "></circle></svg><svg><path transform="translate(3600, 0 translate(30,30) rotate(0) translate(-30,-30)" d="M0 60C33.1371 60 60 33.1371 60 5.24537e-06L5.24537e-06 0L0 60Z" fill="#D8F0F0"></path></svg><svg><path transform="
    translate(60, 60)
    " d="M0 0h60v60H0z" fill="
    #7FD4D4"></path></svg><svg><path transform="
    translate(60, 120)
    " d="M0 0h60v60H0z" fill="
    #BFE5E5"></path></svg><svg><path transform="translate(3600, 10800 translate(30,30) rotate(0) translate(-30,-30)" d="M0 60C33.1371 60 60 33.1371 60 5.24537e-06L5.24537e-06 0L0 60Z" fill="#2B6F73"></path></svg><svg><path transform="translate(3600, 14400 translate(30,30) rotate(180) translate(-30,-30)" d="M0 60C33.1371 60 60 33.1371 60 5.24537e-06L5.24537e-06 0L0 60Z" fill="#263238"></path></svg><svg><path transform="
    translate(60, 300)
    " d="M0 0h60v60H0z" fill="
    #46C2C2"></path></svg><svg><circle cx="30" cy="30" r="30" transform="
    translate(60, 360)
    " fill="
    #263238
    "></circle></svg><svg><path transform="translate(60,420) translate(30,30) rotate(90) translate(-30,-30)" fill="#BFE5E5" d="M60 0v60H0V0z"></path><path transform="translate(60,420) translate(30,30) rotate(90) translate(-30,-30)" fill="#46C2C2" d="M60 0v60H0C0 26.863 26.863 0 60 0z"></path></svg><svg><path transform="translate(60,480) translate(30,30) rotate(90) translate(-30,-30)" fill="#1AA6A6" d="M60 0v60H0V0z"></path><path transform="translate(60,480) translate(30,30) rotate(90) translate(-30,-30)" fill="#1AA6A6" d="M60 0v60H0C0 26.863 26.863 0 60 0z"></path></svg><svg><path transform="translate(3600, 32400 translate(30,30) rotate(180) translate(-30,-30)" d="M0 60C33.1371 60 60 33.1371 60 5.24537e-06L5.24537e-06 0L0 60Z" fill="#263238"></path></svg><svg><circle cx="30" cy="30" r="30" transform="
    translate(120, 0)
    " fill="
    #46C2C2
    "></circle></svg><svg><path transform="translate(120,60) translate(30,30) rotate(180) translate(-30,-30)" fill="#EAF7F7" d="M60 0v60H0V0z"></path><path transform="translate(120,60) translate(30,30) rotate(180) translate(-30,-30)" fill="#BFE5E5" d="M60 0v60H0C0 26.863 26.863 0 60 0z"></path></svg><svg><circle cx="30" cy="30" r="30" transform="
    translate(120, 120)
    " fill="
    #46C2C2
    "></circle></svg><svg><path transform="translate(120, 180) translate(30,30) rotate(180) translate(-30,-30)" fill="#7FD4D4" d="M0 0h60v60H0z"></path><circle cx="30" cy="30" r="30" transform="translate(120, 180) translate(30,30) rotate(180) translate(-30,-30)" fill="#2B6F73"></circle></svg><svg><path transform="translate(120, 240) translate(30,30) rotate(180) translate(-30,-30)" fill="#263238" d="M0 0h60v60H0z"></path><circle cx="30" cy="30" r="30" transform="translate(120, 240) translate(30,30) rotate(180) translate(-30,-30)" fill="#46C2C2"></circle></svg><svg><path transform="translate(7200, 18000 translate(30,30) rotate(270) translate(-30,-30)" d="M0 60C33.1371 60 60 33.1371 60 5.24537e-06L5.24537e-06 0L0 60Z" fill="#BFE5E5"></path></svg><svg><path transform="translate(7200, 21600 translate(30,30) rotate(90) translate(-30,-30)" d="M0 60C33.1371 60 60 33.1371 60 5.24537e-06L5.24537e-06 0L0 60Z" fill="#2B6F73"></path></svg><svg><circle cx="30" cy="30" r="30" transform="
    translate(120, 420)
    " fill="
    #2B6F73
    "></circle></svg><svg><path transform="
    translate(120, 480)
    " d="M0 0h60v60H0z" fill="
    #7FD4D4"></path></svg><svg><circle cx="30" cy="30" r="30" transform="
    translate(120, 540)
    " fill="
    #46C2C2
    "></circle></svg><svg><path transform="translate(10800, 0 translate(30,30) rotate(0) translate(-30,-30)" d="M0 60C33.1371 60 60 33.1371 60 5.24537e-06L5.24537e-06 0L0 60Z" fill="#46C2C2"></path></svg><svg><path transform="
    translate(180, 60)
    " d="M0 0h60v60H0z" fill="
    #2B6F73"></path></svg><svg><path transform="translate(180,120) translate(30,30) rotate(90) translate(-30,-30)" fill="#D8F0F0" d="M60 0v60H0V0z"></path><path transform="translate(180,120) translate(30,30) rotate(90) translate(-30,-30)" fill="#46C2C2" d="M60 0v60H0C0 26.863 26.863 0 60 0z"></path></svg><svg><path transform="
    translate(180, 180)
    " d="M0 0h60v60H0z" fill="
    #1AA6A6"></path></svg><svg><circle cx="30" cy="30" r="30" transform="
    translate(180, 240)
    " fill="
    #BFE5E5
    "></circle></svg><svg><path transform="translate(180,300) translate(30,30) rotate(0) translate(-30,-30)" fill="#1AA6A6" d="M60 0v60H0V0z"></path><path transform="translate(180,300) translate(30,30) rotate(0) translate(-30,-30)" fill="#2B6F73" d="M60 0v60H0C0 26.863 26.863 0 60 0z"></path></svg><svg><path transform="
    translate(180, 360)
    " d="M0 0h60v60H0z" fill="
    #46C2C2"></path></svg><svg><path transform="
    translate(180, 420)
    " d="M0 0h60v60H0z" fill="
    #BFE5E5"></path></svg><svg><path transform="
    translate(180, 480)
    " d="M0 0h60v60H0z" fill="
    #148E8E"></path></svg><svg><path transform="translate(10800, 32400 translate(30,30) rotate(0) translate(-30,-30)" d="M0 60C33.1371 60 60 33.1371 60 5.24537e-06L5.24537e-06 0L0 60Z" fill="#D8F0F0"></path></svg><svg><path transform="translate(14400, 0 translate(30,30) rotate(180) translate(-30,-30)" d="M0 60C33.1371 60 60 33.1371 60 5.24537e-06L5.24537e-06 0L0 60Z" fill="#148E8E"></path></svg><svg><path transform="translate(240, 60) translate(30,30) rotate(180) translate(-30,-30)" fill="#1AA6A6" d="M0 0h60v60H0z"></path><circle cx="30" cy="30" r="30" transform="translate(240, 60) translate(30,30) rotate(180) translate(-30,-30)" fill="#2B6F73"></circle></svg><svg><path transform="
    translate(240, 120)
    " d="M0 0h60v60H0z" fill="
    #1AA6A6"></path></svg><svg><path transform="
    translate(240, 180)
    " d="M0 0h60v60H0z" fill="
    #46C2C2"></path></svg><svg><path transform="translate(14400, 14400 translate(30,30) rotate(0) translate(-30,-30)" d="M0 60C33.1371 60 60 33.1371 60 5.24537e-06L5.24537e-06 0L0 60Z" fill="#EAF7F7"></path></svg><svg><path transform="
    translate(240, 300)
    " d="M0 0h60v60H0z" fill="
    #1AA6A6"></path></svg><svg><path transform="translate(240, 360) translate(30,30) rotate(270) translate(-30,-30)" fill="#148E8E" d="M0 0h60v60H0z"></path><circle cx="30" cy="30" r="30" transform="translate(240, 360) translate(30,30) rotate(270) translate(-30,-30)" fill="#D8F0F0"></circle></svg><svg><path transform="translate(240,420) translate(30,30) rotate(270) translate(-30,-30)" fill="#2B6F73" d="M60 0v60H0V0z"></path><path transform="translate(240,420) translate(30,30) rotate(270) translate(-30,-30)" fill="#46C2C2" d="M60 0v60H0C0 26.863 26.863 0 60 0z"></path></svg><svg><path transform="translate(240,480) translate(30,30) rotate(180) translate(-30,-30)" fill="#7FD4D4" d="M60 0v60H0V0z"></path><path transform="translate(240,480) translate(30,30) rotate(180) translate(-30,-30)" fill="#1AA6A6" d="M60 0v60H0C0 26.863 26.863 0 60 0z"></path></svg><svg><circle cx="30" cy="30" r="30" transform="
    translate(240, 540)
    " fill="
    #BFE5E5
    "></circle></svg><svg><path transform="translate(18000, 0 translate(30,30) rotate(270) translate(-30,-30)" d="M0 60C33.1371 60 60 33.1371 60 5.24537e-06L5.24537e-06 0L0 60Z" fill="#148E8E"></path></svg><svg><path transform="
    translate(300, 60)
    " d="M0 0h60v60H0z" fill="
    #2B6F73"></path></svg><svg><path transform="translate(18000, 7200 translate(30,30) rotate(90) translate(-30,-30)" d="M0 60C33.1371 60 60 33.1371 60 5.24537e-06L5.24537e-06 0L0 60Z" fill="#D8F0F0"></path></svg><svg><path transform="
    translate(300, 180)
    " d="M0 0h60v60H0z" fill="
    #EAF7F7"></path></svg><svg><path transform="translate(300,240) translate(30,30) rotate(270) translate(-30,-30)" fill="#1AA6A6" d="M60 0v60H0V0z"></path><path transform="translate(300,240) translate(30,30) rotate(270) translate(-30,-30)" fill="#1AA6A6" d="M60 0v60H0C0 26.863 26.863 0 60 0z"></path></svg><svg><path transform="
    translate(300, 300)
    " d="M0 0h60v60H0z" fill="
    #263238"></path></svg><svg><path transform="translate(18000, 21600 translate(30,30) rotate(0) translate(-30,-30)" d="M0 60C33.1371 60 60 33.1371 60 5.24537e-06L5.24537e-06 0L0 60Z" fill="#7FD4D4"></path></svg><svg><path transform="
    translate(300, 420)
    " d="M0 0h60v60H0z" fill="
    #BFE5E5"></path></svg><svg><path transform="translate(18000, 28800 translate(30,30) rotate(90) translate(-30,-30)" d="M0 60C33.1371 60 60 33.1371 60 5.24537e-06L5.24537e-06 0L0 60Z" fill="#2B6F73"></path></svg><svg><path transform="translate(300,540) translate(30,30) rotate(0) translate(-30,-30)" fill="#7FD4D4" d="M60 0v60H0V0z"></path><path transform="translate(300,540) translate(30,30) rotate(0) translate(-30,-30)" fill="#BFE5E5" d="M60 0v60H0C0 26.863 26.863 0 60 0z"></path></svg><svg><path transform="translate(360,0) translate(30,30) rotate(270) translate(-30,-30)" fill="#148E8E" d="M60 0v60H0V0z"></path><path transform="translate(360,0) translate(30,30) rotate(270) translate(-30,-30)" fill="#BFE5E5" d="M60 0v60H0C0 26.863 26.863 0 60 0z"></path></svg><svg><circle cx="30" cy="30" r="30" transform="
    translate(360, 60)
    " fill="
    #EAF7F7
    "></circle></svg><svg><path transform="translate(360,120) translate(30,30) rotate(180) translate(-30,-30)" fill="#EAF7F7" d="M60 0v60H0V0z"></path><path transform="translate(360,120) translate(30,30) rotate(180) translate(-30,-30)" fill="#1AA6A6" d="M60 0v60H0C0 26.863 26.863 0 60 0z"></path></svg><svg><path transform="
    translate(360, 180)
    " d="M0 0h60v60H0z" fill="
    #148E8E"></path></svg><svg><path transform="translate(360,240) translate(30,30) rotate(270) translate(-30,-30)" fill="#46C2C2" d="M60 0v60H0V0z"></path><path transform="translate(360,240) translate(30,30) rotate(270) translate(-30,-30)" fill="#46C2C2" d="M60 0v60H0C0 26.863 26.863 0 60 0z"></path></svg><svg><path transform="translate(360, 300) translate(30,30) rotate(180) translate(-30,-30)" fill="#1AA6A6" d="M0 0h60v60H0z"></path><circle cx="30" cy="30" r="30" transform="translate(360, 300) translate(30,30) rotate(180) translate(-30,-30)" fill="#2B6F73"></circle></svg><svg><path transform="
    translate(360, 360)
    " d="M0 0h60v60H0z" fill="
    #D8F0F0"></path></svg><svg><path transform="translate(360,420) translate(30,30) rotate(90) translate(-30,-30)" fill="#1AA6A6" d="M60 0v60H0V0z"></path><path transform="translate(360,420) translate(30,30) rotate(90) translate(-30,-30)" fill="#1AA6A6" d="M60 0v60H0C0 26.863 26.863 0 60 0z"></path></svg><svg><circle cx="30" cy="30" r="30" transform="
    translate(360, 480)
    " fill="
    #D8F0F0
    "></circle></svg><svg><circle cx="30" cy="30" r="30" transform="
    translate(360, 540)
    " fill="
    #D8F0F0
    "></circle></svg><svg><path transform="translate(420,0) translate(30,30) rotate(270) translate(-30,-30)" fill="#2B6F73" d="M60 0v60H0V0z"></path><path transform="translate(420,0) translate(30,30) rotate(270) translate(-30,-30)" fill="#1AA6A6" d="M60 0v60H0C0 26.863 26.863 0 60 0z"></path></svg><svg><path transform="translate(25200, 3600 translate(30,30) rotate(0) translate(-30,-30)" d="M0 60C33.1371 60 60 33.1371 60 5.24537e-06L5.24537e-06 0L0 60Z" fill="#1AA6A6"></path></svg><svg><path transform="
    translate(420, 120)
    " d="M0 0h60v60H0z" fill="
    #7FD4D4"></path></svg><svg><path transform="translate(420,180) translate(30,30) rotate(90) translate(-30,-30)" fill="#148E8E" d="M60 0v60H0V0z"></path><path transform="translate(420,180) translate(30,30) rotate(90) translate(-30,-30)" fill="#2B6F73" d="M60 0v60H0C0 26.863 26.863 0 60 0z"></path></svg><svg><path transform="translate(25200, 14400 translate(30,30) rotate(270) translate(-30,-30)" d="M0 60C33.1371 60 60 33.1371 60 5.24537e-06L5.24537e-06 0L0 60Z" fill="#7FD4D4"></path></svg><svg><path transform="translate(420,300) translate(30,30) rotate(180) translate(-30,-30)" fill="#46C2C2" d="M60 0v60H0V0z"></path><path transform="translate(420,300) translate(30,30) rotate(180) translate(-30,-30)" fill="#7FD4D4" d="M60 0v60H0C0 26.863 26.863 0 60 0z"></path></svg><svg><path transform="translate(25200, 21600 translate(30,30) rotate(180) translate(-30,-30)" d="M0 60C33.1371 60 60 33.1371 60 5.24537e-06L5.24537e-06 0L0 60Z" fill="#2B6F73"></path></svg><svg><circle cx="30" cy="30" r="30" transform="
    translate(420, 420)
    " fill="
    #2B6F73
    "></circle></svg><svg><path transform="translate(420,480) translate(30,30) rotate(90) translate(-30,-30)" fill="#D8F0F0" d="M60 0v60H0V0z"></path><path transform="translate(420,480) translate(30,30) rotate(90) translate(-30,-30)" fill="#EAF7F7" d="M60 0v60H0C0 26.863 26.863 0 60 0z"></path></svg><svg><path transform="
    translate(420, 540)
    " d="M0 0h60v60H0z" fill="
    #D8F0F0"></path></svg><svg><circle cx="30" cy="30" r="30" transform="
    translate(480, 0)
    " fill="
    #263238
    "></circle></svg><svg><path transform="
    translate(480, 60)
    " d="M0 0h60v60H0z" fill="
    #2B6F73"></path></svg><svg><path transform="translate(28800, 7200 translate(30,30) rotate(270) translate(-30,-30)" d="M0 60C33.1371 60 60 33.1371 60 5.24537e-06L5.24537e-06 0L0 60Z" fill="#46C2C2"></path></svg><svg><path transform="translate(480,180) translate(30,30) rotate(90) translate(-30,-30)" fill="#7FD4D4" d="M60 0v60H0V0z"></path><path transform="translate(480,180) translate(30,30) rotate(90) translate(-30,-30)" fill="#D8F0F0" d="M60 0v60H0C0 26.863 26.863 0 60 0z"></path></svg><svg><path transform="
    translate(480, 240)
    " d="M0 0h60v60H0z" fill="
    #7FD4D4"></path></svg><svg><path transform="
    translate(480, 300)
    " d="M0 0h60v60H0z" fill="
    #BFE5E5"></path></svg><svg><path transform="translate(480, 360) translate(30,30) rotate(270) translate(-30,-30)" fill="#D8F0F0" d="M0 0h60v60H0z"></path><circle cx="30" cy="30" r="30" transform="translate(480, 360) translate(30,30) rotate(270) translate(-30,-30)" fill="#263238"></circle></svg><svg><path transform="translate(480,420) translate(30,30) rotate(180) translate(-30,-30)" fill="#BFE5E5" d="M60 0v60H0V0z"></path><path transform="translate(480,420) translate(30,30) rotate(180) translate(-30,-30)" fill="#EAF7F7" d="M60 0v60H0C0 26.863 26.863 0 60 0z"></path></svg><svg><circle cx="30" cy="30" r="30" transform="
    translate(480, 480)
    " fill="
    #263238
    "></circle></svg><svg><path transform="translate(28800, 32400 translate(30,30) rotate(90) translate(-30,-30)" d="M0 60C33.1371 60 60 33.1371 60 5.24537e-06L5.24537e-06 0L0 60Z" fill="#46C2C2"></path></svg><svg><path transform="translate(540,0) translate(30,30) rotate(270) translate(-30,-30)" fill="#BFE5E5" d="M60 0v60H0V0z"></path><path transform="translate(540,0) translate(30,30) rotate(270) translate(-30,-30)" fill="#2B6F73" d="M60 0v60H0C0 26.863 26.863 0 60 0z"></path></svg><svg><path transform="translate(540, 60) translate(30,30) rotate(270) translate(-30,-30)" fill="#148E8E" d="M0 0h60v60H0z"></path><circle cx="30" cy="30" r="30" transform="translate(540, 60) translate(30,30) rotate(270) translate(-30,-30)" fill="#148E8E"></circle></svg><svg><path transform="translate(540, 120) translate(30,30) rotate(90) translate(-30,-30)" fill="#BFE5E5" d="M0 0h60v60H0z"></path><circle cx="30" cy="30" r="30" transform="translate(540, 120) translate(30,30) rotate(90) translate(-30,-30)" fill="#1AA6A6"></circle></svg><svg><path transform="translate(32400, 10800 translate(30,30) rotate(0) translate(-30,-30)" d="M0 60C33.1371 60 60 33.1371 60 5.24537e-06L5.24537e-06 0L0 60Z" fill="#BFE5E5"></path></svg><svg><path transform="translate(540, 240) translate(30,30) rotate(90) translate(-30,-30)" fill="#1AA6A6" d="M0 0h60v60H0z"></path><circle cx="30" cy="30" r="30" transform="translate(540, 240) translate(30,30) rotate(90) translate(-30,-30)" fill="#148E8E"></circle></svg><svg><path transform="
    translate(540, 300)
    " d="M0 0h60v60H0z" fill="
    #2B6F73"></path></svg><svg><path transform="translate(540, 360) translate(30,30) rotate(0) translate(-30,-30)" fill="#46C2C2" d="M0 0h60v60H0z"></path><circle cx="30" cy="30" r="30" transform="translate(540, 360) translate(30,30) rotate(0) translate(-30,-30)" fill="#46C2C2"></circle></svg><svg><path transform="
    translate(540, 420)
    " d="M0 0h60v60H0z" fill="
    #148E8E"></path></svg><svg><path transform="
    translate(540, 480)
    " d="M0 0h60v60H0z" fill="
    #7FD4D4"></path></svg><svg><circle cx="30" cy="30" r="30" transform="
    translate(540, 540)
    " fill="
    #1AA6A6
    "></circle></svg></svg>